<svg xmlns="http://www.w3.org/2000/svg" width="32" height="32" viewBox="0 0 32 32">
  <rect width="32" height="32" fill="#1a472a" rx="6"/>
  <g transform="translate(4, 4)">
    <!-- Spade -->
    <path d="M6 3c-1.5 2-3 3.5-3 6 0 1.5 1 2.5 2.5 2.5S8 10.5 8 9.5c0 1 0.5 2 1.5 2S12 10.5 12 9c0-2.5-1.5-4-3-6z" fill="#000"/>
    <!-- Heart -->
    <path d="M18 3c1.5 2 3 3.5 3 6 0 1.5-1 2.5-2.5 2.5S16 10.5 16 9.5c0 1-0.5 2-1.5 2S12 10.5 12 9c0-2.5 1.5-4 3-6z" fill="#c41e3a"/>
    <!-- Diamond -->
    <path d="M6 21l3-4 3 4-3 4-3-4z" fill="#c41e3a"/>
    <!-- Club -->
    <path d="M18 15c-1.5 2-3 3.5-3 6 0 1.5 1 2.5 2.5 2.5S20 22.5 20 21.5c0 1 0.5 2 1.5 2S24 22.5 24 21c0-2.5-1.5-4-3-6z" fill="#000"/>
  </g>
</svg>